# xmcd
#
# Track frame offsets:
#	150
#	15812
#	41894
#	67210
#	88719
#	131015
#	162930
#	188291
#
# Disc length: 3686 seconds
#
# Revision: 0
# Processed by: cddbd v1.4PL0 Copyright (c) Steve Scherf et al.
# Submitted via: dBpowerAMP V4.0
#
DISCID=600e6408
DTITLE=Blind Faith - Can't Find My Way Home
DYEAR=1900
DGENRE=Classic Rock
TTITLE0=Instrumental Jam
TTITLE1=Can't Find My Way Home
TTITLE2=Well All Right
TTITLE3=Sleeping In The Ground
TTITLE4=Sea Of Joy
TTITLE5=Under My Thumb
TTITLE6=Do What You Like
TTITLE7=Presence Of The Lord
EXTD=
EXTT0=
EXTT1=
EXTT2=
EXTT3=
EXTT4=
EXTT5=
EXTT6=
EXTT7=
PLAYORDER=
